<?xml version="1.0" standalone="no"?>
<!DOCTYPE svg PUBLIC "-//W3C//DTD SVG 20010904//EN"
 "http://www.w3.org/TR/2001/REC-SVG-20010904/DTD/svg10.dtd">
<svg version="1.0" xmlns="http://www.w3.org/2000/svg"
 width="839.000000pt" height="720.000000pt" viewBox="0 0 839.000000 720.000000"
 preserveAspectRatio="xMidYMid meet">

<g transform="translate(0.000000,720.000000) scale(0.100000,-0.100000)"
fill="#000000" stroke="none">
<path d="M2675 7190 c-76 -16 -155 -51 -215 -96 -192 -141 -255 -400 -144
-590 35 -59 115 -131 179 -160 197 -91 435 46 435 249 l0 58 -37 -6 c-65 -11
-75 -16 -69 -32 12 -30 -16 -98 -54 -134 -92 -88 -232 -73 -328 36 -127 145
-84 379 93 500 134 93 309 99 470 17 75 -38 185 -153 228 -239 46 -95 60 -162
55 -286 l-3 -102 -65 -66 c-170 -173 -274 -357 -337 -599 -34 -128 -42 -344
-19 -476 68 -393 300 -720 651 -916 44 -25 106 -56 138 -69 54 -21 73 -39 43
-39 -25 0 -251 -118 -328 -171 -255 -178 -442 -400 -584 -693 -137 -282 -194
-540 -194 -873 0 -271 43 -499 140 -740 95 -239 221 -431 410 -626 171 -178
275 -251 453 -316 146 -54 215 -93 292 -163 127 -117 151 -167 194 -412 l26
-151 104 -5 c56 -3 105 -1 108 3 3 4 18 85 34 180 33 191 50 237 126 332 64
79 128 120 305 195 187 78 325 168 465 303 123 118 198 207 277 330 477 732
400 1755 -180 2385 -173 188 -356 315 -609 421 l-30 13 55 22 c162 67 306 162
431 286 106 105 153 165 222 285 171 296 209 662 102 990 -59 179 -164 351
-308 501 l-90 95 -4 72 c-12 189 80 384 231 491 102 73 153 90 281 90 103 1
114 -1 177 -31 90 -42 160 -110 201 -192 28 -58 32 -75 32 -146 0 -98 -23
-155 -89 -219 -46 -44 -115 -76 -165 -76 -104 0 -201 87 -201 179 0 31 -4 33
-67 46 -29 6 -33 4 -39 -19 -22 -88 56 -225 157 -277 254 -129 557 124 510
426 -44 286 -346 479 -640 410 -272 -64 -466 -303 -496 -608 l-7 -67 -41 26
c-67 42 -216 109 -302 137 -288 95 -606 93 -898 -4 -92 -30 -242 -101 -305
-144 -20 -14 -40 -25 -44 -25 -5 0 -8 26 -8 58 -1 183 -96 377 -248 504 -53
45 -121 82 -202 110 -62 22 -213 32 -275 18z m1690 -671 c483 -67 847 -377
967 -823 30 -111 32 -354 4 -466 -132 -523 -613 -871 -1171 -846 -302 13 -563
121 -771 318 -182 173 -296 400 -325 647 -36 305 89 636 327 861 249 236 628
357 969 309z m30 -2414 c196 -29 402 -114 567 -232 79 -57 255 -220 246 -228
-2 -2 -105 -12 -228 -22 -323 -25 -1242 -25 -1550 0 -118 10 -216 19 -217 21
-2 2 41 45 95 97 199 191 446 319 692 359 41 6 82 13 90 15 45 8 218 3 305
-10z m-1305 -1089 c385 -32 619 -41 1115 -41 496 0 730 9 1115 41 248 20 225
24 243 -43 33 -121 49 -234 54 -389 l6 -161 -88 -7 c-429 -33 -668 -40 -1315
-40 -645 0 -898 8 -1337 41 l-83 6 0 77 c0 146 38 421 70 505 11 29 -1 29 220
11z m207 -1241 c411 -27 954 -38 1330 -26 328 11 750 35 821 47 l33 5 -56
-110 c-77 -151 -161 -266 -285 -392 l-105 -106 -60 -7 c-283 -32 -378 -38
-690 -43 -340 -5 -493 0 -774 29 -105 10 -117 14 -149 42 -63 55 -197 211
-259 303 -58 84 -153 256 -153 276 0 6 26 7 64 3 35 -3 162 -13 283 -21z"/>
<path d="M3712 5657 c-155 -57 -192 -261 -66 -365 99 -82 243 -61 312 44 113
169 -56 389 -246 321z"/>
<path d="M4566 5655 c-147 -52 -183 -257 -63 -362 61 -54 150 -67 222 -34 82
37 128 108 128 196 0 150 -144 251 -287 200z"/>
<path d="M3900 5022 c0 -13 76 -129 128 -195 54 -68 123 -117 167 -117 44 0
113 49 167 117 52 66 128 182 128 195 0 4 -133 8 -295 8 -162 0 -295 -4 -295
-8z"/>
</g>
</svg>
